<?xml version="1.0" encoding="utf-8"?>
<!-- Generator: Adobe Illustrator 26.1.0, SVG Export Plug-In . SVG Version: 6.00 Build 0)  -->
<svg version="1.1" id="Layer_1" xmlns="http://www.w3.org/2000/svg" xmlns:xlink="http://www.w3.org/1999/xlink" x="0px" y="0px"
	 viewBox="0 0 1000 188.6" style="enable-background:new 0 0 1000 188.6;" xml:space="preserve">
<style type="text/css">
	.st0{fill:#333333;}
</style>
<g>
	<g>
		<path class="st0" d="M154.2,167.7c0,4.3-1.4,7.8-4.3,10.6c-2.8,2.8-6.3,4.2-10.5,4.2c-4.1,0-7.6-1.4-10.3-4.2
			c-2.8-2.8-4.1-6.3-4.1-10.6c0-4.1,1.4-7.6,4.1-10.6c2.8-3,6.2-4.4,10.3-4.4s7.6,1.5,10.5,4.4C152.8,160.1,154.2,163.6,154.2,167.7
			z"/>
		<polygon class="st0" points="3.1,6.5 3.1,25.4 64.6,25.4 64.6,180.8 87.8,180.8 87.8,25.4 209.9,25.4 209.9,180.8 289.5,180.8 
			289.5,160.8 232.4,160.8 232.4,99.5 283.3,99.5 283.3,81.1 232.4,81.1 232.4,26.2 327.9,26.2 327.9,180.8 351.2,180.8 351.2,6.5 
					"/>
		<path class="st0" d="M502.1,93.9c0,28.2-6,49.8-18.1,64.6c-12.1,14.9-28.9,22.3-50.6,22.3h-41.9V6.5h42.1
			c21.7,0,38.5,7.5,50.5,22.4S502.1,65.5,502.1,93.9z M478.8,93.9c0-11.5-1.2-21.5-3.5-30s-5.5-15.6-9.5-21.2s-8.8-9.8-14.4-12.6
			s-11.5-4.2-17.9-4.2h-18.8v135.4h18.8c6.3,0,12.3-1.4,17.9-4.2s10.4-7,14.4-12.6s7.2-12.6,9.5-21
			C477.7,115.1,478.8,105.2,478.8,93.9z"/>
		<path class="st0" d="M613.2,134.5c0,7.9-1.3,15-3.9,21.3c-2.6,6.3-6.1,11.6-10.5,15.9c-4.4,4.3-9.6,7.5-15.6,9.8
			s-12.5,3.4-19.4,3.4c-9.3,0-18.1-1.8-26.5-5.5s-15-8.6-20-14.6l13.7-16c4,4.9,8.9,8.8,14.9,11.6c5.9,2.8,11.9,4.2,18,4.2
			c7.8,0,14.1-2.5,19.1-7.4s7.5-12.1,7.5-21.4c0-4.4-0.8-8.3-2.3-11.7c-1.6-3.4-3.7-6.4-6.5-9.1s-5.9-5.2-9.4-7.4
			c-3.5-2.2-7.4-4.3-11.5-6.3c-5-2.3-9.7-4.9-14.1-7.8c-4.4-2.9-8.3-6.2-11.8-10c-3.4-3.8-6.2-8.2-8.1-13.4c-2-5.2-3-11.3-3-18.3
			c0-8.4,1.4-15.7,4.1-21.9c2.8-6.2,6.4-11.4,11-15.5s9.8-7.1,15.6-9.1c5.9-2,11.8-3,17.8-3c8.8,0,16.7,1.4,23.6,4.2
			c7,2.8,12.8,7,17.4,12.6l-14,15.8c-6.5-8.2-15.3-12.3-26.4-12.3c-3.3,0-6.5,0.5-9.7,1.6s-6.1,2.8-8.7,5.2c-2.6,2.4-4.7,5.4-6.2,9
			c-1.6,3.6-2.3,8-2.3,13c0,4.4,0.7,8.2,2.2,11.4s3.4,6.1,5.9,8.6s5.4,4.8,8.7,6.9s6.8,4,10.6,5.8c4.8,2.3,9.6,4.9,14.2,7.8
			c4.7,2.9,8.9,6.3,12.7,10.2c3.8,3.9,6.8,8.6,9.2,13.9C612,121.2,613.2,127.4,613.2,134.5z"/>
		<path class="st0" d="M703.1,180.8h-30l-45-174.3h25.6l34.9,148.7h0.5l35-148.7h24.8L703.1,180.8z"/>
		<path class="st0" d="M950.3,2.3c9.8,0,18.5,1.7,26.1,5.2c7.6,3.4,13.9,8.7,18.9,15.8l-14.5,15c-3.8-5.3-8.2-9.2-13.2-11.8
			s-10.4-3.9-16.3-3.9c-7.1,0-13.1,1.9-18.2,5.7c-5.1,3.8-9.3,8.9-12.8,15.4c-3.4,6.5-6,14-7.6,22.6s-2.5,17.7-2.5,27.2
			c0,10,0.9,19.3,2.7,27.9s4.5,16.1,8,22.4s8,11.3,13.3,14.9c5.3,3.6,11.6,5.4,18.9,5.4c9.6,0,17-2,22-5.9v-53.9h-24V85h46.5v84.9
			c-5.3,4.3-11.6,7.7-18.7,10.2c-7.2,2.5-15.9,3.8-26.2,3.8c-10.5,0-19.9-2.2-28.2-6.5s-15.3-10.5-21.1-18.3
			c-5.8-7.9-10.2-17.4-13.2-28.6s-4.5-23.5-4.5-37.2c0-13.1,1.5-25.2,4.4-36.3s7.1-20.7,12.7-28.8c5.5-8.1,12.3-14.5,20.3-19.1
			C931.1,4.6,940.2,2.3,950.3,2.3z"/>
	</g>
	<path class="st0" d="M829.3,26.4c0,5.7-1.9,10.3-5.7,14s-8.4,5.5-13.9,5.5s-10-1.9-13.7-5.5c-3.7-3.7-5.5-8.4-5.5-14
		c0-5.4,1.8-10.1,5.5-14c3.6-3.9,8.2-5.9,13.7-5.9s10.1,2,13.9,5.9S829.3,20.9,829.3,26.4z"/>
	<path class="st0" d="M839.2,58.3h-57.8l-32.3,122.5h23.5l12.1-47.9h49.7l12.1,47.9h24.3L839.2,58.3z M789.5,113.7l9.1-36.2h22
		l9.1,36.2H789.5z"/>
</g>
</svg>
